<svg xmlns="http://www.w3.org/2000/svg" viewBox="0 0 512 512"><title>Artboard 111</title><g id="Asian_Young_Man" data-name="Asian Young Man"><rect x="341.33333" y="192" width="42.66667" height="64" rx="21.33331" ry="21.33331" style="fill:#cb7956"/><rect x="128" y="192" width="42.66667" height="64" rx="21.33331" ry="21.33331" style="fill:#e29971"/><path d="M192,277.33333v64a21.33334,21.33334,0,0,1-21.33333,21.33334h-64A85.33333,85.33333,0,0,0,21.33333,448v42.66667H490.66667V448a85.33333,85.33333,0,0,0-85.33334-85.33333h-64A21.33334,21.33334,0,0,1,320,341.33333v-64Z" style="fill:#e29971"/><rect x="149.33333" y="405.33333" width="85.33333" height="42.66667" rx="21.33331" ry="21.33331" style="fill:#edbda4"/><circle cx="213.33333" cy="426.66667" r="21.33333" style="fill:#f5d9cb"/><path d="M341.33333,362.66667A21.33356,21.33356,0,0,1,320,341.33333v-64H256v85.33334h21.33333V384H234.66667v21.33333a21.33333,21.33333,0,1,0,42.66666,0h85.33334V362.66667Z" style="fill:#cb7956"/><rect x="149.33333" y="42.66667" width="213.33333" height="298.66656" rx="106.66656" ry="106.66656" style="fill:#edbda4"/><path d="M320,64.48307v84.85026H277.33333v21.33334H320v42.66659a21.33333,21.33333,0,0,1,21.33333,21.33333v.00008A21.33333,21.33333,0,0,1,320,256H256v64h21.33333v19.18359a106.69065,106.69065,0,0,0,85.33334-104.51692V149.33333C362.66667,114.54948,345.76563,83.95443,320,64.48307Z" style="fill:#e29971"/><polygon points="234.667 234.667 234.667 256 277.333 256 277.333 192 320 192 320 170.667 256 170.667 256 234.667 234.667 234.667" style="fill:#cb7956"/><rect x="298.66667" y="192" width="21.33333" height="21.33333" style="fill:#4c2c1a"/><rect x="192" y="192" width="21.33333" height="21.33333" style="fill:#4c2c1a"/><rect x="234.66667" y="277.33333" width="42.66667" height="21.33333" style="fill:#ce464d"/><path d="M405.33333,362.66667h-64a85.33333,85.33333,0,1,1-170.66666,0h-64A85.33255,85.33255,0,0,0,21.33333,448v42.66667H490.66667V448A85.33255,85.33255,0,0,0,405.33333,362.66667Z" style="fill:#ce464d"/><path d="M64,490.66667H42.66667V448a64.07,64.07,0,0,1,64-64v21.33333A42.70887,42.70887,0,0,0,64,448Z" style="fill:#e08a8e"/><path d="M256,490.66667V469.33333A106.79223,106.79223,0,0,0,362.66667,362.66667H384A128.14,128.14,0,0,1,256,490.66667Z" style="fill:#ab0008"/><path d="M213.33333,106.66667S192,128,192,170.66667H170.66667v42.66664l-21.33334,0V192C128,192,106.66667,170.66667,106.66667,170.66667v-.00015A149.33319,149.33319,0,0,1,255.99985,21.33333h.0003A149.33319,149.33319,0,0,1,405.33333,170.66652v.00015S384,192,362.66667,192l-21.33334,21.33331V170.66667H320c-85.33333,0-85.33333-64-85.33333-64Z" style="fill:#224552"/><path d="M362.66667,192c21.33333,0,42.66666-21.33333,42.66666-21.33333A148.279,148.279,0,0,0,234.66667,23.03v83.63678a63.99993,63.99993,0,0,0,63.99993,63.99994h42.66673v42.66666h21.33334Z" style="fill:#062d3c"/><rect x="213.33333" y="85.33333" width="21.33333" height="21.33333" style="fill:#cb7956"/><path d="M149.33333,170.66667H128A128.48791,128.48791,0,0,1,202.6875,54.30208l8.91667,19.375A107.11328,107.11328,0,0,0,149.33333,170.66667Z" style="fill:#4c6a74"/><path d="M362.66667,170.66667H341.33333V149.33333h-32A53.39611,53.39611,0,0,1,256,96V64h21.33333V96a32.035,32.035,0,0,0,32,32h53.33334Z" style="fill:#224552"/></g></svg>